# xmcd
#
# Track frame offsets: 
#        150
#        32115
#        52757
#        71062
#        86117
#        102545
#        117475
#        132307
#        148215
#        167840
#        185792
#        207252
#
# Disc length: 3039 seconds
#
# Revision: 2
# Processed by: cddbd v1.5.2PL0 Copyright (c) Steve Scherf et al.
# Submitted via: ExactAudioCopyFreeDBPlugin 1.0
#
DISCID=bc0bdd0c
DTITLE=Isaac Hayes - Greatest Hit Singles
DYEAR=1991
DGENRE=Soul
TTITLE0=By the Time I Get to Phoenix
TTITLE1=Walk on By
TTITLE2=I Stand Accused
TTITLE3=The Look of Love
TTITLE4=Never Can Say Goodbye
TTITLE5=Theme from "Shaft"
TTITLE6=Do Your Thing
TTITLE7=Let's Stay Together
TTITLE8=Ain't That Loving You (For Reasons More Than One) (with David 
TTITLE8=Porter)
TTITLE9=Theme from "The Men"
TTITLE10=(If Loving You is Wrong) I Don't Want to Be Right
TTITLE11=Joy (Part 1)
EXTD=
EXTT0=
EXTT1=
EXTT2=
EXTT3=
EXTT4=
EXTT5=
EXTT6=
EXTT7=
EXTT8=
EXTT9=
EXTT10=
EXTT11=
PLAYORDER=
